<svg xmlns="http://www.w3.org/2000/svg" viewBox="0 0 1200 1800">
  <defs>
    <linearGradient id="sky" x1="0" y1="0" x2="1" y2="1"><stop stop-color="#071a35"/><stop offset=".55" stop-color="#134c67"/><stop offset="1" stop-color="#d48d55"/></linearGradient>
    <linearGradient id="sea" x1="0" y1="0" x2="0" y2="1"><stop stop-color="#123a57"/><stop offset="1" stop-color="#061222"/></linearGradient>
    <filter id="glow"><feGaussianBlur stdDeviation="18"/></filter>
  </defs>
  <rect width="1200" height="1800" fill="url(#sky)"/>
  <path d="M-80 1060 C210 910 360 1100 560 1000 S910 880 1280 1050 V1800 H-80Z" fill="url(#sea)"/>
  <path d="M-50 1260 C220 1130 400 1320 650 1190 S1000 1130 1260 1280" fill="none" stroke="#95ded4" stroke-width="16" opacity=".34"/>
  <path d="M-100 650 C220 500 400 720 610 550 S960 450 1300 590" fill="none" stroke="#7cf0d7" stroke-width="34" opacity=".38" filter="url(#glow)"/>
  <path d="M90 1250 L440 850 L620 1260Z" fill="#07111e"/>
  <rect x="518" y="590" width="120" height="520" rx="10" fill="#10243c"/>
  <path d="M500 610 Q578 450 656 610Z" fill="#d3eef0"/>
  <rect x="548" y="705" width="60" height="160" fill="#f8c679"/>
  <circle cx="578" cy="610" r="64" fill="#ffe2a8" opacity=".9" filter="url(#glow)"/>
  <text x="90" y="1540" fill="#eff8f3" font-family="Georgia, serif" font-size="72" letter-spacing="12">COASTLINE</text>
  <text x="96" y="1610" fill="#aed4d1" font-family="Arial, sans-serif" font-size="26" letter-spacing="8">FIELD NOTES · 2026</text>
</svg>
