<svg xmlns="http://www.w3.org/2000/svg" viewBox="0 0 1200 1800">
  <defs>
    <linearGradient id="bg" x1="0" y1="0" x2="1" y2="1"><stop stop-color="#e8d6bd"/><stop offset=".5" stop-color="#b8d0c0"/><stop offset="1" stop-color="#375a53"/></linearGradient>
    <radialGradient id="sun"><stop stop-color="#ffe8a6"/><stop offset="1" stop-color="#e89066"/></radialGradient>
  </defs>
  <rect width="1200" height="1800" fill="url(#bg)"/>
  <circle cx="860" cy="365" r="220" fill="url(#sun)" opacity=".9"/>
  <path d="M150 1440 V340 H1030 V1440" fill="none" stroke="#f2f6e8" stroke-width="32" opacity=".8"/>
  <path d="M180 460 L1020 1320 M1020 460 L180 1320 M260 340 V1440 M480 340 V1440 M720 340 V1440 M940 340 V1440" stroke="#f2f6e8" stroke-width="13" opacity=".7"/>
  <path d="M-40 1510 C190 1240 360 1520 570 1290 S940 1210 1250 1450 V1800 H-40Z" fill="#234a44"/>
  <g fill="#638f5c"><ellipse cx="240" cy="1370" rx="80" ry="180" transform="rotate(-34 240 1370)"/><ellipse cx="460" cy="1420" rx="90" ry="220" transform="rotate(28 460 1420)"/><ellipse cx="770" cy="1320" rx="95" ry="230" transform="rotate(-21 770 1320)"/><ellipse cx="980" cy="1410" rx="85" ry="200" transform="rotate(38 980 1410)"/></g>
  <text x="84" y="1630" fill="#fbf7e9" font-family="Georgia, serif" font-size="82" letter-spacing="8">GLASSHOUSE</text>
  <text x="91" y="1700" fill="#d6e2c8" font-family="Arial, sans-serif" font-size="25" letter-spacing="8">A SECOND SPRING</text>
</svg>
